Genre:Comedy | Sci-Fi 
Language:English
IMDb:http://www.imdb.com/title/tt1092026/
Source:TaRiQ786/Imagine Thx.

Format : AVI
Format/Info : Audio Video Interleave
File size : 690 MiB
Duration : 1h 35mn
Overall bit rate : 1 012 Kbps

Video
Codec ID/Hint : XviD
Duration : 1h 35mn
Bit rate : 874 Kbps
Width : 720 pixels
Height : 304 pixels
Display aspect ratio : 2.35:1
Frame rate : 25.000 fps
Color space : YUV
Chroma subsampling : 4:2:0
Bit depth : 8 bits
Scan type : Progressive
Bits/(Pixel*Frame) : 0.160
Stream size : 596 MiB (86%)
Writing library : XviD 1.2.1 (UTC 2008-12-04)

Audio
ID : 1
Format : MPEG Audio
Format version : Version 1
Format profile : Layer 3
Codec ID : 55
Codec ID/Hint : MP3
Duration : 1h 35mn
Bit rate mode : Constant
Bit rate : 128 Kbps
Channel(s) : 2 channels
Sampling rate : 44.1 KHz
Stream size : 87.3 MiB (13%)
Alignment : Split accross interleaves
Interleave, duration : 40 ms (1.00 video frame)
Interleave, preload duration : 500 ms


Plot:
Two British comic-book geeks traveling across the U.S. encounter an alien outside Area 51





================================== 
http://thepiratebay.org/user/hiest
==================================